<svg width="497" height="91" viewBox="0 0 497 91" fill="none" xmlns="http://www.w3.org/2000/svg">
<path d="M0 39.5401L-1.12709e-05 49.5401L20 49.5401L20 39.5401L0 39.5401ZM51 80.0396C51 85.5624 55.4772 90.0396 61 90.0396C66.5228 90.0396 71 85.5624 71 80.0396H51ZM20 39.5401C20 26.8862 23.0918 22.4061 24.3254 21.3902C24.4252 21.3081 25.6399 19.9621 29.9164 22.8404C38.9379 28.9122 51 48.7505 51 80.0396H71C71 44.827 57.5621 17.3391 41.0836 6.24837C32.6102 0.545399 21.0749 -1.84102 11.6122 5.95088C3.28329 12.8091 1.62555e-05 25.1175 0 39.5401L20 39.5401Z" fill="#F4C553"/>
<path d="M144 39.5401L144 49.5401L164 49.5401L164 39.5401L144 39.5401ZM195 80.0396C195 85.5624 199.477 90.0396 205 90.0396C210.523 90.0396 215 85.5624 215 80.0396H195ZM164 39.5401C164 26.8862 167.092 22.4061 168.325 21.3902C168.425 21.3081 169.64 19.9621 173.916 22.8404C182.938 28.9122 195 48.7505 195 80.0396H215C215 44.827 201.562 17.3391 185.084 6.24837C176.61 0.545399 165.075 -1.84102 155.612 5.95088C147.283 12.8091 144 25.1175 144 39.5401L164 39.5401Z" fill="#F4C553"/>
<path d="M282 39.5401L282 49.5401L302 49.5401L302 39.5401L282 39.5401ZM333 80.0396C333 85.5624 337.477 90.0396 343 90.0396C348.523 90.0396 353 85.5624 353 80.0396H333ZM302 39.5401C302 26.8862 305.092 22.4061 306.325 21.3902C306.425 21.3081 307.64 19.9621 311.916 22.8404C320.938 28.9122 333 48.7505 333 80.0396H353C353 44.827 339.562 17.3391 323.084 6.24837C314.61 0.545399 303.075 -1.84102 293.612 5.95088C285.283 12.8091 282 25.1175 282 39.5401L302 39.5401Z" fill="#F4C553"/>
<path d="M426 39.5401L426 49.5401L446 49.5401L446 39.5401L426 39.5401ZM477 80.0396C477 85.5624 481.477 90.0396 487 90.0396C492.523 90.0396 497 85.5624 497 80.0396H477ZM446 39.5401C446 26.8862 449.092 22.4061 450.325 21.3902C450.425 21.3081 451.64 19.9621 455.916 22.8404C464.938 28.9122 477 48.7505 477 80.0396H497C497 44.827 483.562 17.3391 467.084 6.24837C458.61 0.545399 447.075 -1.84102 437.612 5.95088C429.283 12.8091 426 25.1175 426 39.5401L446 39.5401Z" fill="#F4C553"/>
</svg>
