<svg width="103" height="103" viewBox="0 0 103 103" fill="none" xmlns="http://www.w3.org/2000/svg">
<path d="M51.9272 51.5L51.5 92.8651" stroke="#EE9F4A" stroke-width="4" stroke-linecap="round" stroke-linejoin="round"/>
<path d="M88.5156 70.5439V32.4562C88.5156 31.8862 88.3643 31.3264 88.077 30.8341C87.7897 30.3417 87.3769 29.9345 86.8807 29.654L53.0838 10.5515C52.6006 10.2783 52.055 10.1348 51.5 10.1348C50.945 10.1348 50.3994 10.2783 49.9162 10.5515L16.1193 29.654C15.6231 29.9345 15.2103 30.3417 14.923 30.8341C14.6357 31.3264 14.4844 31.8862 14.4844 32.4562V70.5439C14.4844 71.1139 14.6357 71.6736 14.923 72.166C15.2102 72.6583 15.6231 73.0655 16.1193 73.346L49.9162 92.4486C50.3994 92.7217 50.945 92.8652 51.5 92.8652C52.055 92.8652 52.6006 92.7217 53.0838 92.4486L86.8807 73.346C87.3769 73.0655 87.7897 72.6583 88.077 72.166C88.3643 71.6736 88.5156 71.1139 88.5156 70.5439V70.5439Z" stroke="#EE9F4A" stroke-width="4" stroke-linecap="round" stroke-linejoin="round"/>
<path d="M88.0747 30.8304L51.9273 51.5L14.9282 30.826" stroke="#EE9F4A" stroke-width="4" stroke-linecap="round" stroke-linejoin="round"/>
</svg>
