<svg width="103" height="103" viewBox="0 0 103 103" fill="none" xmlns="http://www.w3.org/2000/svg">
<path d="M28.9688 12.875H83.6875C84.5412 12.875 85.3599 13.2141 85.9635 13.8178C86.5671 14.4214 86.9062 15.2401 86.9062 16.0938V57.9375C86.9062 58.7912 86.5671 59.6099 85.9635 60.2135C85.3599 60.8171 84.5412 61.1562 83.6875 61.1562H19.3125C18.4588 61.1562 17.6401 60.8171 17.0365 60.2135C16.4329 59.6099 16.0938 58.7912 16.0938 57.9375V25.75C16.0938 22.3353 17.4502 19.0605 19.8647 16.646C22.2793 14.2315 25.5541 12.875 28.9688 12.875V12.875Z" stroke="#EE9F4A" stroke-width="4" stroke-linecap="round" stroke-linejoin="round"/>
<path d="M45.0625 61.1562L41.8438 83.6875C41.8438 86.2485 42.8611 88.7046 44.672 90.5155C46.4829 92.3264 48.939 93.3437 51.5 93.3438C54.061 93.3437 56.5171 92.3264 58.328 90.5155C60.1389 88.7046 61.1562 86.2485 61.1562 83.6875L57.9375 61.1562" stroke="#EE9F4A" stroke-width="4" stroke-linecap="round" stroke-linejoin="round"/>
<path d="M16.0938 45.0625H86.9062" stroke="#EE9F4A" stroke-width="4" stroke-linecap="round" stroke-linejoin="round"/>
<path d="M67.5938 12.875V28.9688" stroke="#EE9F4A" stroke-width="4" stroke-linecap="round" stroke-linejoin="round"/>
</svg>
